<svg width="643" height="290" viewBox="0 0 643 290" fill="none" xmlns="http://www.w3.org/2000/svg">
<path d="M640.558 2.6875L599.263 98.1024C598.801 99.1678 597.533 99.6181 596.504 99.082L559.397 79.7655C558.443 79.269 557.267 79.6155 556.735 80.55L522.581 140.54C521.971 141.611 520.548 141.881 519.588 141.108L478.904 108.342C478.124 107.714 477 107.759 476.274 108.448L415.139 166.408C414.649 166.872 413.959 167.058 413.303 166.903L387.061 160.695C386.579 160.581 386.072 160.65 385.638 160.889L252.617 233.984C252.116 234.259 251.521 234.307 250.982 234.115L220.327 223.177C219.785 222.984 219.187 223.033 218.684 223.312L122.353 276.804C122.12 276.933 121.864 277.015 121.599 277.044L26 287.5L2.5 287.5" stroke="black" stroke-width="4" stroke-linecap="round"/>
</svg>
